# xmcd
#
# Track frame offsets:
#	150
#	10300
#	37777
#	58052
#	79968
#	103153
#	119691
#	142533
#	171334
#	189090
#
# Disc length: 2742 seconds
#
# Revision: 0
# Processed by: cddbd v1.5.2PL0 Copyright (c) Steve Scherf et al.
#
# Submitted via: freedbSubmitter v1.01
#
DISCID=7c0ab40a
DTITLE=Jack Beck - O Lassie, Lassie
DYEAR=1989
DGENRE=Scottish Folk
TTITLE0=Birnie Boozle
TTITLE1=Matt Hyland
TTITLE2=Twa Corbies
TTITLE3=Kilbowie Hill
TTITLE4=The Bleacher Lass o' Kelvinha'
TTITLE5=Bound to Be a Row
TTITLE6=Ned of the Hill
TTITLE7=The Jolly Beggar
TTITLE8=Love is Teasing
TTITLE9=The Merchant's Son
EXTD=Jack Beck with members of the Scottish folk group Heritage:\nJack Beck: vocals, guitar\nGary Coupland: accordion\nPete Clark: fiddle\nMike Ward: whistle, keyboards, Northumbrian pipes\nAlistair M
EXTD=arshall: Highland bagpipes, flute\nGeorge Haig: banjo, mandola, Autoharp\nDavy Lockhart: fiddle\nLindsay Porteous: jew's harp\nChris Miles: backing vocals\nAndy Hunter: backing vocals\nColin Stua
EXTD=rt: backing vocals
EXTT0=
EXTT1=
EXTT2=
EXTT3=
EXTT4=
EXTT5=
EXTT6=
EXTT7=
EXTT8=
EXTT9=
PLAYORDER=
